<svg width="85" height="59" viewBox="0 0 85 59" fill="none" xmlns="http://www.w3.org/2000/svg">
<path d="M39.8242 42.0698C41.0205 43.1685 41.6187 43.9375 41.6187 44.377C41.6187 46.3789 40.5444 48.5273 38.396 50.8223C34.9536 54.5332 30.6445 57.0356 25.4688 58.3296C23.7109 58.769 21.5991 58.9888 19.1333 58.9888C16.6919 58.9888 14.2261 58.6348 11.7358 57.9268C9.24561 57.2188 7.13379 56.2178 5.40039 54.9238C1.88477 52.2627 0.126953 48.7227 0.126953 44.3037C0.126953 37.6387 3.00781 32.1699 8.76953 27.8975C14.1162 23.9424 20.3906 21.8428 27.5928 21.5986C23.5645 19.0352 21.5503 16.02 21.5503 12.5532C21.5503 9.15967 24.4434 6.31543 30.2295 4.02051C35.5273 1.94531 41.0938 0.907715 46.9287 0.907715C51.2012 0.907715 54.0576 2.15283 55.498 4.64307C55.9619 5.47314 56.1938 6.36426 56.1938 7.31641C56.1938 8.26855 56.0596 9.17188 55.791 10.0264C55.5469 10.8564 55.2051 11.6133 54.7656 12.2969C53.7402 13.835 52.5439 14.604 51.1768 14.604C50.3223 14.604 49.3091 14.1157 48.1372 13.1392C47.8442 12.895 47.6245 12.6875 47.478 12.5166C48.5522 11.2471 49.0894 9.7334 49.0894 7.97559C49.0894 5.94922 47.7222 4.93604 44.9878 4.93604C41.8628 4.93604 38.5425 5.48535 35.0269 6.58398C30.73 7.95117 28.5815 9.67236 28.5815 11.7476C28.5815 15.019 31.5967 17.8145 37.627 20.1338C39.7266 20.9395 42.168 21.6353 44.9512 22.2212C44.0234 25.7612 43.4131 27.7144 43.1201 28.0806C42.8271 28.4224 42.6196 28.5688 42.4976 28.52C39.0063 27.3237 35.5029 26.7256 31.9873 26.7256C26.3965 26.7256 21.9043 28.1172 18.5107 30.9004C15.7275 33.1465 14.3359 35.8931 14.3359 39.1401C14.3359 41.4595 15.3857 43.3516 17.4854 44.8164C19.6338 46.3057 22.4658 47.0503 25.9814 47.0503C30.6689 47.0503 35.2832 45.3901 39.8242 42.0698ZM71.6772 46.3911C73.4839 46.3911 75.498 45.5732 77.7197 43.9375C79.6973 42.4482 81.4307 40.5928 82.9199 38.3711C84.043 38.2734 84.5801 38.7495 84.5312 39.7993C84.5068 40.6294 83.9941 41.8867 82.9932 43.5713C82.0166 45.2559 81.0522 46.7207 80.1001 47.9658C79.1479 49.2109 78.0859 50.4316 76.9141 51.6279C75.7422 52.8242 74.4971 53.8984 73.1787 54.8506C70.2246 56.9502 67.3438 58 64.5361 58C60.9473 58 58.5547 56.9258 57.3584 54.7773C56.9434 54.0449 56.748 53.166 56.7725 52.1406C54.6973 54.6553 51.7432 56.4131 47.9102 57.4141C46.6162 57.7559 45.2246 57.9268 43.7354 57.9268C42.2461 57.9268 40.8789 57.6948 39.6338 57.231C38.4131 56.7427 37.3633 56.0713 36.4844 55.2168C34.6777 53.4346 33.7744 51.0542 33.7744 48.0757C33.7744 44.7065 35.2026 41.252 38.0591 37.7119C40.8667 34.1963 44.4678 31.3154 48.8623 29.0693C53.5498 26.7012 58.335 25.5171 63.2178 25.5171C65.3906 25.5171 66.355 26.4814 66.1108 28.4102C60.4956 28.4102 55.6006 29.9238 51.4258 32.9512C49.5947 34.2939 48.1543 35.771 47.1045 37.3823C46.0791 38.9937 45.5664 40.5562 45.5664 42.0698C45.5664 44.9019 46.7627 46.3179 49.1553 46.3179C52.5977 46.3179 56.0645 44.1694 59.5557 39.8726C60.7764 38.3589 62.1924 36.2471 63.8037 33.5371C65.4395 30.8027 66.77 28.5811 67.7954 26.8721C68.8452 25.1387 69.9072 23.3809 70.9814 21.5986C72.0801 19.792 73.1299 18.0708 74.1309 16.4351C76.5967 12.4067 78.1226 9.98975 78.7085 9.18408C79.5874 7.96338 80.625 7.35303 81.8213 7.35303C83.2129 7.35303 84.2261 7.85352 84.8608 8.85449C82.1753 13.0781 79.6729 17.5581 77.3535 22.2944C75.0342 27.0308 73.4229 30.4854 72.5195 32.6582C70.4688 37.5898 69.4434 41.1177 69.4434 43.2417C69.4434 45.3413 70.188 46.3911 71.6772 46.3911Z" fill="#1E1E1E"/>
</svg>
